<svg width="24" height="24" viewBox="0 0 24 24" fill="none" xmlns="http://www.w3.org/2000/svg" shape-rendering="geometricPrecision">
<g clip-path="url(#clip0_4136_64359)">
<mask id="mask0_4136_64359" style="mask-type:luminance" maskUnits="userSpaceOnUse" x="0" y="12" width="7" height="11">
<path d="M0.347656 22.254H6.6917L3.81945 13.22C3.76717 13.05 3.58591 12.958 3.41859 13.0111C3.32099 13.043 3.2443 13.1208 3.21293 13.22L0.347656 22.254Z" fill="white"/>
</mask>
<g mask="url(#mask0_4136_64359)">
<path d="M7.04119 12.6036H0V22.6076H7.04119V12.6036Z" fill="#00DCFF"/>
</g>
<mask id="mask1_4136_64359" style="mask-type:luminance" maskUnits="userSpaceOnUse" x="15" y="11" width="9" height="12">
<path d="M15.7734 22.2655H23.1353L19.7576 11.6243C19.7053 11.4543 19.5241 11.3623 19.3568 11.4154C19.2592 11.4473 19.1825 11.5251 19.1511 11.6243L15.7734 22.2655Z" fill="white"/>
</mask>
<g mask="url(#mask1_4136_64359)">
<path d="M23.4887 11.0078H15.4297V22.619H23.4887V11.0078Z" fill="#00DCFF"/>
</g>
<mask id="mask2_4136_64359" style="mask-type:luminance" maskUnits="userSpaceOnUse" x="7" y="1" width="14" height="22">
<path d="M7.01172 22.2654H20.5922L14.1052 1.9564C14.0494 1.78648 13.8717 1.69444 13.7043 1.75108C13.6067 1.78294 13.5301 1.86082 13.4987 1.9564L7.01172 22.2654Z" fill="white"/>
</mask>
<g mask="url(#mask2_4136_64359)">
<path d="M20.9456 1.33984H6.66797V22.6188H20.9456V1.33984Z" fill="#006AFF"/>
</g>
<mask id="mask3_4136_64359" style="mask-type:luminance" maskUnits="userSpaceOnUse" x="2" y="6" width="12" height="17">
<path d="M2.8863 22.2674H13.1657L8.32754 7.11265C8.27176 6.94273 8.09399 6.85069 7.92668 6.90733C7.82908 6.93919 7.75239 7.01707 7.72102 7.11265L2.88281 22.2674H2.8863Z" fill="white"/>
</mask>
<g mask="url(#mask3_4136_64359)">
<path d="M13.5157 6.49609H2.53906V22.6208H13.5157V6.49609Z" fill="#006AFF"/>
</g>
<mask id="mask4_4136_64359" style="mask-type:luminance" maskUnits="userSpaceOnUse" x="5" y="9" width="10" height="14">
<path d="M5.73438 22.2673H14.4278L10.3844 9.67906C10.3286 9.50914 10.1508 9.4171 9.98349 9.47374C9.88589 9.5056 9.81269 9.58348 9.78132 9.67906L5.73786 22.2673H5.73438Z" fill="white"/>
</mask>
<g mask="url(#mask4_4136_64359)">
<path d="M14.7851 9.06641H5.39453V22.6211H14.7851V9.06641Z" fill="#00DCFF"/>
</g>
</g>
<defs>
<clipPath id="clip0_4136_64359">
<rect width="24" height="24" fill="white"/>
</clipPath>
</defs>
</svg>
